<svg viewBox="0 0 131 31" fill="none" xmlns="http://www.w3.org/2000/svg" class="row__icon-normal" data-v-b7dc4599=""><path d="M22.9962 6.21422C21.3271 5.12584 20.1202 3.38365 19.7449 1.35306C19.6639 0.914549 19.6185 0.462215 19.6185 0H14.2892L14.2813 21.3587C14.1924 23.7507 12.223 25.6707 9.80923 25.6707C9.05862 25.6707 8.35345 25.4831 7.73123 25.1552C6.30508 24.4045 5.3293 22.9093 5.3293 21.1908C5.3293 18.7197 7.33815 16.7108 9.80923 16.7108C10.2695 16.7108 10.7119 16.7879 11.1307 16.9183V11.4783C10.6981 11.4191 10.2576 11.3815 9.80923 11.3815C4.40092 11.3815 0 15.7825 0 21.1908C0 24.5092 1.65726 27.4465 4.18759 29.2222C5.78164 30.3403 7.71938 31 9.80923 31C15.2175 31 19.6185 26.5991 19.6185 21.1908V10.3603C21.7083 11.8615 24.2702 12.7445 27.0336 12.7445V7.41519C25.5443 7.41321 24.1596 6.97075 22.9962 6.21422Z" fill="url(#paint0_linear_1482_8120)"></path><path d="M32.1239 7.44087H48.9296L47.3869 12.2487L43.0275 12.2467V30.0222H37.5955V12.2467L32.1299 12.2566L32.1239 7.44087Z" fill="url(#paint1_linear_1482_8120)"></path><path d="M76.459 7.44087H93.6538L92.1111 12.2487L87.3705 12.2467V30.0222H81.9286V12.2467L76.463 12.2566L76.459 7.44087Z" fill="url(#paint2_linear_1482_8120)"></path><path d="M49.9548 14.623H55.3433L55.3374 30.0222H49.9864L49.9548 14.623Z" fill="url(#paint3_linear_1482_8120)"></path><path d="M57.4786 7.37766H62.8612V17.894L68.1945 12.6596H74.6201L67.8725 19.2076L75.4299 30.0222H69.5001L64.4573 22.5221L62.8612 24.0727V30.0222H57.4786V7.37766Z" fill="url(#paint4_linear_1482_8120)"></path><path d="M112.206 7.37766H117.588V17.894L122.922 12.6596H129.347L122.6 19.2076L130.157 30.0222H124.227L119.184 22.5221L117.588 24.0727V30.0222H112.206V7.37766Z" fill="url(#paint5_linear_1482_8120)"></path><path d="M52.6471 12.863C54.1449 12.863 55.3591 11.6488 55.3591 10.1509C55.3591 8.65312 54.1449 7.43889 52.6471 7.43889C51.1492 7.43889 49.935 8.65312 49.935 10.1509C49.935 11.6488 51.1492 12.863 52.6471 12.863Z" fill="url(#paint6_linear_1482_8120)"></path><path d="M100.8 11.587C95.7101 11.587 91.5818 15.7133 91.5818 20.8056C91.5818 25.8959 95.7081 30.0242 100.8 30.0242C105.891 30.0242 110.019 25.8979 110.019 20.8056C110.019 15.7133 105.891 11.587 100.8 11.587ZM100.8 25.2855C98.3254 25.2855 96.3185 23.2786 96.3185 20.8036C96.3185 18.3286 98.3254 16.3217 100.8 16.3217C103.275 16.3217 105.282 18.3286 105.282 20.8036C105.28 23.2786 103.275 25.2855 100.8 25.2855Z" fill="url(#paint7_linear_1482_8120)"></path><defs><linearGradient id="paint0_linear_1482_8120" x1="65.0785" y1="0" x2="65.0785" y2="31" gradientUnits="userSpaceOnUse"><stop stop-color="white"></stop><stop offset="1" stop-color="#D3D3D3"></stop></linearGradient><linearGradient id="paint1_linear_1482_8120" x1="65.0785" y1="0" x2="65.0785" y2="31" gradientUnits="userSpaceOnUse"><stop stop-color="white"></stop><stop offset="1" stop-color="#D3D3D3"></stop></linearGradient><linearGradient id="paint2_linear_1482_8120" x1="65.0785" y1="0" x2="65.0785" y2="31" gradientUnits="userSpaceOnUse"><stop stop-color="white"></stop><stop offset="1" stop-color="#D3D3D3"></stop></linearGradient><linearGradient id="paint3_linear_1482_8120" x1="65.0785" y1="0" x2="65.0785" y2="31" gradientUnits="userSpaceOnUse"><stop stop-color="white"></stop><stop offset="1" stop-color="#D3D3D3"></stop></linearGradient><linearGradient id="paint4_linear_1482_8120" x1="65.0785" y1="0" x2="65.0785" y2="31" gradientUnits="userSpaceOnUse"><stop stop-color="white"></stop><stop offset="1" stop-color="#D3D3D3"></stop></linearGradient><linearGradient id="paint5_linear_1482_8120" x1="65.0785" y1="0" x2="65.0785" y2="31" gradientUnits="userSpaceOnUse"><stop stop-color="white"></stop><stop offset="1" stop-color="#D3D3D3"></stop></linearGradient><linearGradient id="paint6_linear_1482_8120" x1="65.0785" y1="0" x2="65.0785" y2="31" gradientUnits="userSpaceOnUse"><stop stop-color="white"></stop><stop offset="1" stop-color="#D3D3D3"></stop></linearGradient><linearGradient id="paint7_linear_1482_8120" x1="65.0785" y1="0" x2="65.0785" y2="31" gradientUnits="userSpaceOnUse"><stop stop-color="white"></stop><stop offset="1" stop-color="#D3D3D3"></stop></linearGradient></defs></svg>