<svg xmlns="http://www.w3.org/2000/svg" viewBox="0 0 160 32" width="160" height="32" role="img" aria-label="Tyrian logo">
  <path d="M6.12,4.76 L22.65,4.76 L22.65,8.25 L16.70,8.25 L16.70,22.69 L12.08,22.69 L12.08,8.25 L6.12,8.25 L6.12,4.76 Z M20.16,9.24 L24.46,9.24 L28.08,18.37 L31.15,9.24 L35.45,9.24 L29.79,23.96 Q28.94,26.21 27.80,27.10 Q26.67,28.00 24.81,28.00 L22.32,28.00 L22.32,25.18 L23.67,25.18 Q24.76,25.18 25.26,24.83 Q25.76,24.48 26.03,23.58 L26.15,23.21 L20.16,9.24 Z M47.96,12.90 Q47.39,12.64 46.83,12.51 Q46.27,12.39 45.71,12.39 Q44.05,12.39 43.16,13.45 Q42.26,14.51 42.26,16.49 L42.26,22.69 L37.96,22.69 L37.96,9.24 L42.26,9.24 L42.26,11.45 Q43.09,10.13 44.16,9.52 Q45.24,8.92 46.74,8.92 Q46.96,8.92 47.21,8.94 Q47.46,8.95 47.94,9.01 L47.96,12.90 Z M50.09,9.24 L54.39,9.24 L54.39,22.69 L50.09,22.69 L50.09,9.24 Z M50.09,4.00 L54.39,4.00 L54.39,7.51 L50.09,7.51 L50.09,4.00 Z M64.55,16.64 Q63.21,16.64 62.53,17.10 Q61.85,17.55 61.85,18.44 Q61.85,19.26 62.40,19.72 Q62.95,20.18 63.92,20.18 Q65.13,20.18 65.96,19.31 Q66.79,18.44 66.79,17.13 L66.79,16.64 L64.55,16.64 Z M71.13,15.02 L71.13,22.69 L66.79,22.69 L66.79,20.70 Q65.93,21.92 64.84,22.48 Q63.76,23.04 62.21,23.04 Q60.12,23.04 58.82,21.82 Q57.52,20.60 57.52,18.66 Q57.52,16.29 59.14,15.19 Q60.77,14.08 64.25,14.08 L66.79,14.08 L66.79,13.74 Q66.79,12.72 65.98,12.25 Q65.18,11.77 63.47,11.77 Q62.09,11.77 60.90,12.05 Q59.71,12.33 58.69,12.88 L58.69,9.60 Q60.07,9.26 61.47,9.09 Q62.86,8.92 64.25,8.92 Q67.89,8.92 69.51,10.35 Q71.13,11.78 71.13,15.02 Z M88.65,14.50 L88.65,22.69 L84.32,22.69 L84.32,21.36 L84.32,16.42 Q84.32,14.68 84.25,14.02 Q84.17,13.36 83.98,13.05 Q83.72,12.63 83.29,12.39 Q82.86,12.16 82.31,12.16 Q80.96,12.16 80.19,13.20 Q79.42,14.24 79.42,16.07 L79.42,22.69 L75.13,22.69 L75.13,9.24 L79.42,9.24 L79.42,11.21 Q80.40,10.03 81.49,9.47 Q82.58,8.92 83.90,8.92 Q86.23,8.92 87.44,10.35 Q88.65,11.77 88.65,14.50 Z" fill="currentColor"/>
</svg>
