<svg viewBox="0 0 126 28" fill="none" xmlns="http://www.w3.org/2000/svg" class="row__icon-normal" data-v-b7dc4599=""><path d="M15.9999 19.9999V7.99993L26.3918 14L15.9999 19.9999ZM39.1638 4.37221C38.7039 2.65131 37.3486 1.29583 35.6276 0.835886C32.5081 8.22333e-07 19.9998 0 19.9998 0C19.9998 0 7.49162 8.22333e-07 4.37217 0.835886C2.65129 1.29583 1.29581 2.65131 0.835875 4.37221C0 7.49166 0 13.9999 0 13.9999C0 13.9999 0 20.5084 0.835875 23.6277C1.29581 25.3485 2.65129 26.7041 4.37217 27.1639C7.49162 28 19.9998 28 19.9998 28C19.9998 28 32.5081 28 35.6276 27.1639C37.3486 26.7041 38.7039 25.3485 39.1638 23.6277C39.9998 20.5084 39.9998 13.9999 39.9998 13.9999C39.9998 13.9999 39.9998 7.49166 39.1638 4.37221Z" fill="url(#paint0_linear_910_145)"></path><path d="M62.4934 22.7264C62.7123 22.1547 62.8223 21.2203 62.8223 19.9236V14.4597C62.8223 13.2012 62.7123 12.2813 62.4934 11.6995C62.2741 11.118 61.8878 10.827 61.335 10.827C60.801 10.827 60.424 11.118 60.205 11.6995C59.9857 12.2813 59.8761 13.2012 59.8761 14.4597V19.9236C59.8761 21.2203 59.9808 22.1547 60.1909 22.7264C60.4003 23.2987 60.7815 23.5845 61.335 23.5845C61.8878 23.5845 62.2741 23.2987 62.4934 22.7264ZM58.0599 25.4726C57.268 24.9392 56.7053 24.1094 56.3721 22.9839C56.0383 21.8591 55.8717 20.362 55.8717 18.4931V15.9473C55.8717 14.0594 56.062 12.5432 56.4436 11.3991C56.8249 10.255 57.4205 9.4209 58.2314 8.8963C59.0417 8.37206 60.1049 8.10967 61.421 8.10967C62.7176 8.10967 63.7567 8.37683 64.5387 8.91055C65.3204 9.44445 65.8926 10.279 66.2551 11.4134C66.617 12.5482 66.7984 14.0594 66.7984 15.9473V18.4931C66.7984 20.362 66.6219 21.864 66.2693 22.9984C65.9163 24.1331 65.3441 24.9628 64.5529 25.4869C63.7613 26.0112 62.6889 26.2736 61.335 26.2736C59.9426 26.2736 58.8508 26.0064 58.0599 25.4726Z" fill="url(#paint1_linear_910_145)"></path><path d="M119.315 11.1548C119.115 11.4028 118.981 11.808 118.915 12.3704C118.847 12.933 118.815 13.7863 118.815 14.9304V16.1891H121.703V14.9304C121.703 13.8056 121.665 12.9522 121.589 12.3704C121.513 11.7889 121.375 11.3791 121.175 11.1405C120.974 10.9021 120.664 10.7828 120.245 10.7828C119.825 10.7828 119.515 10.9071 119.315 11.1548ZM118.815 18.5348V19.4216C118.815 20.547 118.847 21.3907 118.915 21.953C118.981 22.5157 119.119 22.9258 119.329 23.1834C119.539 23.4404 119.863 23.5695 120.302 23.5695C120.893 23.5695 121.298 23.3405 121.518 22.8827C121.737 22.4251 121.856 21.6624 121.875 20.5942L125.279 20.7946C125.298 20.9476 125.308 21.1573 125.308 21.4237C125.308 23.045 124.865 24.256 123.978 25.0569C123.091 25.8575 121.837 26.2582 120.216 26.2582C118.271 26.2582 116.907 25.6482 116.126 24.4273C115.343 23.2074 114.953 21.3193 114.953 18.7637V15.7028C114.953 13.0712 115.358 11.1503 116.169 9.93886C116.979 8.72805 118.366 8.12254 120.331 8.12254C121.684 8.12254 122.724 8.37051 123.448 8.8662C124.173 9.36239 124.683 10.1347 124.979 11.1832C125.274 12.2322 125.422 13.6817 125.422 15.5312V18.5348H118.815Z" fill="url(#paint2_linear_910_145)"></path><path d="M48.4476 18.2064L43.9565 1.98729H47.8753L49.4485 9.33885C49.8492 11.1509 50.1446 12.6955 50.3352 13.9728H50.4498C50.5831 13.0575 50.8788 11.5226 51.3365 9.36753L52.967 1.98729H56.8858L52.3377 18.2064V25.9874H48.4476V18.2064Z" fill="url(#paint3_linear_910_145)"></path><path d="M79.544 8.45269V25.9874H76.4545L76.1111 23.8421H76.0255C75.1862 25.463 73.9275 26.2732 72.2496 26.2732C71.0863 26.2732 70.2283 25.8923 69.6751 25.1292C69.122 24.3669 68.8457 23.1746 68.8457 21.5537V8.45269H72.7932V21.3247C72.7932 22.1071 72.8791 22.6646 73.0507 22.9982C73.2222 23.3322 73.5083 23.4987 73.9087 23.4987C74.2521 23.4987 74.581 23.3942 74.8955 23.1839C75.2103 22.9742 75.4437 22.7078 75.5965 22.3834V8.45269H79.544Z" fill="url(#paint4_linear_910_145)"></path><path d="M99.7919 8.45269V25.9874H96.7025L96.3591 23.8421H96.2738C95.4339 25.463 94.1755 26.2732 92.4976 26.2732C91.3343 26.2732 90.4763 25.8923 89.9231 25.1292C89.37 24.3669 89.0937 23.1746 89.0937 21.5537V8.45269H93.0412V21.3247C93.0412 22.1071 93.1268 22.6646 93.2983 22.9982C93.4702 23.3322 93.7563 23.4987 94.1567 23.4987C94.5001 23.4987 94.829 23.3942 95.1435 23.1839C95.4583 22.9742 95.6917 22.7078 95.8445 22.3834V8.45269H99.7919Z" fill="url(#paint5_linear_910_145)"></path><path d="M90.2705 5.16308H86.3517V25.9874H82.4901V5.16308H78.5713V1.98782H90.2705V5.16308Z" fill="url(#paint6_linear_910_145)"></path><path d="M109.238 18.4081C109.238 19.6859 109.185 20.6872 109.081 21.4115C108.976 22.1367 108.799 22.6514 108.552 22.9562C108.304 23.2614 107.969 23.4138 107.551 23.4138C107.226 23.4138 106.926 23.3379 106.649 23.1849C106.372 23.0325 106.149 22.8038 105.977 22.4983V12.544C106.11 12.0676 106.339 11.6764 106.664 11.3713C106.988 11.0666 107.34 10.9136 107.722 10.9136C108.122 10.9136 108.432 11.0711 108.652 11.3855C108.871 11.7001 109.023 12.2294 109.109 12.9733C109.195 13.7168 109.238 14.7752 109.238 16.1482V18.4081ZM112.857 11.2556C112.618 10.1499 112.232 9.34903 111.698 8.85284C111.164 8.3574 110.43 8.10931 109.495 8.10931C108.771 8.10931 108.094 8.31444 107.465 8.7242C106.835 9.13435 106.349 9.67315 106.006 10.3405H105.977L105.977 1.101H102.173V25.9871H105.433L105.834 24.3283H105.92C106.225 24.9193 106.682 25.3866 107.293 25.7298C107.903 26.073 108.58 26.2447 109.324 26.2447C110.658 26.2447 111.641 25.6295 112.27 24.3997C112.899 23.1695 113.214 21.2486 113.214 18.6358V15.8611C113.214 13.8972 113.095 12.362 112.857 11.2556Z" fill="url(#paint7_linear_910_145)"></path><defs><linearGradient id="paint0_linear_910_145" x1="62.7112" y1="0" x2="62.7112" y2="28" gradientUnits="userSpaceOnUse"><stop stop-color="white"></stop><stop offset="1" stop-color="#D3D3D3"></stop></linearGradient><linearGradient id="paint1_linear_910_145" x1="62.7112" y1="0" x2="62.7112" y2="28" gradientUnits="userSpaceOnUse"><stop stop-color="white"></stop><stop offset="1" stop-color="#D3D3D3"></stop></linearGradient><linearGradient id="paint2_linear_910_145" x1="62.7112" y1="0" x2="62.7112" y2="28" gradientUnits="userSpaceOnUse"><stop stop-color="white"></stop><stop offset="1" stop-color="#D3D3D3"></stop></linearGradient><linearGradient id="paint3_linear_910_145" x1="62.7112" y1="0" x2="62.7112" y2="28" gradientUnits="userSpaceOnUse"><stop stop-color="white"></stop><stop offset="1" stop-color="#D3D3D3"></stop></linearGradient><linearGradient id="paint4_linear_910_145" x1="62.7112" y1="0" x2="62.7112" y2="28" gradientUnits="userSpaceOnUse"><stop stop-color="white"></stop><stop offset="1" stop-color="#D3D3D3"></stop></linearGradient><linearGradient id="paint5_linear_910_145" x1="62.7112" y1="0" x2="62.7112" y2="28" gradientUnits="userSpaceOnUse"><stop stop-color="white"></stop><stop offset="1" stop-color="#D3D3D3"></stop></linearGradient><linearGradient id="paint6_linear_910_145" x1="62.7112" y1="0" x2="62.7112" y2="28" gradientUnits="userSpaceOnUse"><stop stop-color="white"></stop><stop offset="1" stop-color="#D3D3D3"></stop></linearGradient><linearGradient id="paint7_linear_910_145" x1="62.7112" y1="0" x2="62.7112" y2="28" gradientUnits="userSpaceOnUse"><stop stop-color="white"></stop><stop offset="1" stop-color="#D3D3D3"></stop></linearGradient></defs></svg>